<svg width="130" height="35" viewBox="0 0 130 35" fill="none" xmlns="http://www.w3.org/2000/svg"> <path d="M52.0491 25.1371L50.2599 20.4435H44.073L42.2837 25.0924H39.6753L46.0347 8.55316H48.3197L54.6791 25.1371H52.0491ZM47.1772 12.3751L44.9999 18.0744H49.3976L47.1772 12.3751ZM64.3367 23.1926C63.5176 24.6231 61.987 25.4724 60.3918 25.4053C59.6373 25.4277 58.8828 25.2489 58.1929 24.8913V30.3895H55.8648V13.6714H58.1929V14.029C58.8828 13.6714 59.6373 13.4926 60.3918 13.5149C61.987 13.4479 63.5176 14.2972 64.3367 15.7276C64.9188 16.8898 65.1775 18.2085 65.0912 19.5272C65.1559 20.7565 64.8972 22.0304 64.3367 23.1926ZM62.2888 16.8004C61.8792 16.1299 61.1463 15.75 60.3918 15.817C59.6373 15.7276 58.8828 16.1076 58.4947 16.8004C58.3223 17.1357 58.236 17.4933 58.1929 17.8733V20.9129C58.2145 21.2929 58.3223 21.6505 58.4947 21.9857C59.2708 23.0809 60.7582 23.3044 61.793 22.4998C61.987 22.3657 62.1595 22.1869 62.2888 21.9857C62.6553 21.1811 62.8062 20.2871 62.7415 19.3931C62.8062 18.4991 62.6553 17.6274 62.2888 16.8004ZM75.2662 23.1926C74.4471 24.6231 72.9165 25.4724 71.3213 25.4053C70.5668 25.4277 69.8123 25.2489 69.1224 24.8913V30.3895H66.7943V13.6714H69.1224V14.029C69.8123 13.6714 70.5668 13.4926 71.3213 13.5149C72.9165 13.4479 74.4471 14.2972 75.2662 15.7276C75.8483 16.8898 76.107 18.2085 76.0207 19.5272C76.107 20.7565 75.8267 22.0304 75.2662 23.1926ZM73.2399 16.8004C72.8303 16.1299 72.0973 15.75 71.3428 15.817C70.5883 15.7276 69.8338 16.1076 69.4458 16.8004C69.2733 17.1357 69.1871 17.4933 69.144 17.8733V20.9129C69.1655 21.2929 69.2733 21.6505 69.4458 21.9857C70.2218 23.0809 71.7093 23.3044 72.744 22.4998C72.9381 22.3657 73.1105 22.1869 73.2399 21.9857C73.6063 21.1811 73.7572 20.2871 73.6926 19.3931C73.7357 18.4991 73.5848 17.6274 73.2399 16.8004ZM89.688 20.4435C89.106 24.4219 86.4544 25.1371 83.0484 25.1371H77.9824V8.57551H83.0484C86.476 8.57551 89.1275 9.26837 89.688 13.2691C89.8389 14.476 89.9036 15.6829 89.882 16.8898C89.882 18.0521 89.8173 19.259 89.688 20.4435ZM83.0268 11.0117H80.3968V22.6786H83.0268C87.597 22.6786 87.4245 21.0694 87.4245 16.8451C87.4245 12.6209 87.597 11.0117 83.0268 11.0117ZM92.1455 25.1371V13.4032H94.5168V25.1371H92.1455ZM92.1455 11.3246V8.44141H94.5168V11.3246H92.1455ZM102.903 16.197C102.471 15.9064 101.954 15.7276 101.437 15.7276C100.488 15.7276 99.3025 16.3087 99.3025 17.4262V25.1595H96.9528V13.5373H99.2378V13.8949C99.9061 13.582 100.639 13.4255 101.372 13.4255C102.256 13.4255 103.118 13.649 103.916 14.0513L102.903 16.197ZM106.546 20.2647C106.567 20.8682 106.718 21.4493 106.998 21.9634C107.559 22.6786 108.421 23.0809 109.305 23.0362C110.21 23.0809 111.094 22.6786 111.676 21.9634L113.552 23.4832C112.474 24.7348 110.922 25.4053 109.305 25.3383C107.624 25.4277 105.985 24.6454 104.994 23.215C104.347 22.0304 104.045 20.6894 104.131 19.3484C104.045 18.0074 104.347 16.644 104.994 15.4818C105.921 14.0961 107.473 13.3138 109.089 13.4032C110.62 13.3585 112.086 14.1408 112.927 15.4818C113.573 16.9792 113.832 18.6108 113.616 20.2424L106.546 20.2647ZM110.943 16.7557C110.534 16.0852 109.822 15.7053 109.068 15.75C107.818 15.6159 106.697 16.5769 106.567 17.8956H111.224C111.224 17.4933 111.137 17.1133 110.987 16.7557H110.943ZM120.105 25.3159C116.85 25.3159 114.931 22.768 114.931 19.2366C114.931 15.6829 116.85 13.1573 120.105 13.1573C121.808 13.135 123.425 13.9843 124.417 15.4371L122.692 16.9569C121.463 15.5712 120.946 15.4371 120.105 15.4371C119.264 15.3924 118.445 15.7947 117.928 16.5099C117.454 17.3145 117.238 18.2756 117.324 19.2143C117.217 20.1753 117.432 21.1364 117.928 21.9634C118.424 22.6786 119.243 23.0809 120.105 23.0362C120.946 23.0362 121.463 22.835 122.692 21.5164L124.417 23.0362C123.425 24.4666 121.808 25.3383 120.105 25.3159ZM125.753 13.3808V10.6541L127.995 10.2518V13.3808H130V15.5712H127.995V22.0304C127.974 22.2092 127.974 22.3657 127.995 22.5445C128.038 22.6562 128.146 22.7233 128.275 22.7009H129.741V25.0924H128.275C127.413 25.1148 126.594 24.6678 126.141 23.9079C125.839 23.3267 125.689 22.6786 125.732 22.0081L125.753 13.3808Z" fill="white"></path> <path d="M1.8894 27.5808L11.4008 23.4319L15.9955 9.7812L11.3364 2.38618C11.3364 2.36468 1.8894 27.5808 1.8894 27.5808ZM11.1217 0L22.8016 18.466L29.6507 15.4779L18.7008 0H11.1217ZM34.6104 14.5321L0 29.5586L7.38584 34.6104L30.5954 24.7432C30.5739 24.7432 34.6104 14.5321 34.6104 14.5321Z" fill="white"></path> </svg>
